<svg width="15" height="15" viewBox="0 0 15 15" fill="none" xmlns="http://www.w3.org/2000/svg">
<path d="M14.3189 1.59098L1.59099 14.3189C1.30108 14.6088 0.820244 14.6088 0.53033 14.3189C0.240416 14.029 0.240416 13.5482 0.53033 13.2582L13.2583 0.530322C13.5482 0.240409 14.029 0.240409 14.3189 0.530322C14.6088 0.820236 14.6088 1.30107 14.3189 1.59098Z" fill="white"/>
<path d="M0.530697 1.59098L13.2586 14.3189C13.5485 14.6088 14.0294 14.6088 14.3193 14.3189C14.6092 14.029 14.6092 13.5482 14.3193 13.2582L1.59136 0.530322C1.30144 0.240409 0.820611 0.240409 0.530697 0.530322C0.240784 0.820236 0.240784 1.30107 0.530697 1.59098Z" fill="white"/>
</svg>
