<svg width="23" height="26" viewBox="0 0 23 26" fill="none" xmlns="http://www.w3.org/2000/svg">
<path d="M19.7025 14.5912L19.5586 12.3913C19.5676 11.8822 19.6036 11.3731 19.6755 10.8731C19.7385 10.464 19.8285 10.0641 19.9184 9.66406C19.7475 9.99133 19.5676 10.3095 19.3697 10.6186C19.3067 10.7186 19.2437 10.8186 19.1807 10.9186C18.9648 11.264 18.7579 11.6004 18.56 11.9458C18.3531 12.3276 18.1822 12.7276 18.0292 13.1367C18.0112 13.1731 18.0022 13.2094 17.9843 13.2549L17.3905 15.3548C16.5898 18.1002 14.3588 20.6092 11.7229 21.7637C10.3195 22.3728 8.80812 22.591 7.38672 22.4092C7.79155 22.8819 8.25935 23.2819 8.77214 23.591C8.91607 23.6728 9.06001 23.7637 9.20395 23.8273C9.35689 23.8909 9.50982 23.9546 9.66276 24.0091C10.2655 24.2182 10.8952 24.3182 11.534 24.3182C13.2972 24.3182 15.1684 23.5637 16.6348 22.1819C18.65 20.3001 19.8555 17.3184 19.7025 14.5912Z" fill="white"/>
<path d="M4.66016 21.4814C5.038 21.7178 5.44283 21.9087 5.85665 22.0633C5.90164 22.0814 5.94662 22.0905 5.9916 22.1087C5.91963 21.9905 5.84766 21.8723 5.78469 21.7542C5.40684 21.6814 5.029 21.5996 4.66016 21.4814Z" fill="#FF9D8D"/>
<path d="M11.7227 21.7727C14.3676 20.6272 16.5897 18.1091 17.3903 15.3638L17.9841 13.2638C18.0021 13.2275 18.0111 13.182 18.0291 13.1456C18.182 12.7366 18.3619 12.3366 18.5598 11.9548C18.7488 11.6093 18.9557 11.282 19.1806 10.9275C19.2435 10.8275 19.3065 10.7275 19.3695 10.6275C19.5674 10.3184 19.7473 10.0003 19.9183 9.673C19.9453 9.56391 19.9722 9.44574 19.9902 9.33665C20.1971 8.36395 20.3861 7.31852 20.1162 6.40945C20.1072 6.39127 20.1072 6.364 20.0982 6.33673C19.9812 5.9731 19.8013 5.66402 19.5764 5.40039C19.6934 5.79129 19.7473 6.19128 19.7383 6.60036C19.7383 6.62763 19.7383 6.6549 19.7383 6.67308V6.70945C19.6934 7.30943 19.5314 7.89123 19.2705 8.43667C19.0366 8.92757 18.7757 9.40028 18.4789 9.85481L18.2899 10.1548C18.074 10.5003 17.8671 10.8184 17.6782 11.1548C17.4803 11.5184 17.3094 11.9002 17.1564 12.2911L17.1204 12.382L16.5177 14.4547V14.4638C16.0589 15.9365 15.2762 17.291 14.2327 18.4273C13.1981 19.5818 11.9386 20.5 10.5172 21.1181C9.95946 21.3545 9.3747 21.5363 8.78095 21.6545C8.2052 21.7727 7.62044 21.8363 7.02669 21.8363C6.99071 21.8363 6.95472 21.8363 6.92773 21.8363C7.06268 22.0363 7.21561 22.2363 7.36855 22.4181C8.79895 22.5999 10.3193 22.3817 11.7227 21.7727Z" fill="#FF9D8D"/>
<path d="M21.0065 6.10914C20.9975 6.09096 20.9975 6.06369 20.9796 6.03641C20.7816 5.42734 20.4218 4.87281 19.954 4.44555C19.7021 4.21828 19.4232 4.0092 19.1263 3.83648C19.4772 3.6183 19.828 3.37285 20.1609 3.1274C20.4578 2.90923 22.347 1.43654 22.347 1.43654L19.882 0.0820312L19.3063 0.918373C18.8385 1.61835 18.3617 2.30924 17.7049 2.84559C17.48 2.66378 17.2461 2.50015 16.9942 2.36379C16.4455 2.0638 15.8427 1.90925 15.222 1.90925H15.105H15.0331H14.9971C14.4033 1.95471 13.8276 2.11834 13.2878 2.38197C12.802 2.61833 12.3342 2.88196 11.8844 3.18195L11.5875 3.37285C11.2456 3.59103 10.9308 3.80011 10.5979 3.99102C10.2381 4.19101 9.86023 4.36373 9.47339 4.51828L9.38343 4.55464L7.3323 5.16371C5.87491 5.62733 4.53447 6.41822 3.40995 7.46365C2.26743 8.50907 1.35881 9.78177 0.747066 11.2181C0.171309 12.5908 -0.062593 14.0817 0.0723502 15.5634C0.135324 16.2725 0.297256 16.9634 0.540153 17.627C0.792047 18.2815 1.1429 18.8906 1.57472 19.427C1.68267 19.5633 1.80862 19.6997 1.95256 19.8542L1.97055 19.8724L1.98854 19.8906C2.14148 20.036 2.27642 20.1633 2.41137 20.2724C3.0501 20.7996 3.78779 21.1996 4.57046 21.4542C4.59745 21.4633 4.63343 21.4724 4.66042 21.4814C5.02926 21.5996 5.40711 21.6905 5.78495 21.7451C5.84792 21.8633 5.91989 21.9814 5.99186 22.0996C6.20777 22.4451 6.45067 22.7723 6.71156 23.0723C7.17036 23.5996 7.70114 24.045 8.29489 24.4086C8.43883 24.4995 8.60076 24.5814 8.78968 24.6814L8.80767 24.6904L8.82567 24.6995C9.01459 24.7814 9.18552 24.8541 9.34745 24.9086C10.0492 25.1541 10.7778 25.2723 11.5245 25.2723C12.0373 25.2723 12.5501 25.2177 13.0449 25.1177C13.5577 25.0086 14.0525 24.8541 14.5383 24.6541C15.0331 24.445 15.5099 24.1996 15.9597 23.9087C16.4275 23.6087 16.8593 23.2632 17.2641 22.8905C18.3796 21.8178 19.2613 20.5178 19.828 19.0724C20.4128 17.6452 20.6827 16.0998 20.6197 14.5453V14.5362L20.4758 12.3817C20.4758 12.3453 20.4758 12.3181 20.4758 12.2817C20.4848 11.8635 20.5117 11.4454 20.5747 11.0363C20.6377 10.6545 20.7187 10.2818 20.8086 9.89085C20.8356 9.78177 20.8626 9.66359 20.8896 9.54541C21.0155 9.01815 21.0965 8.47271 21.1505 7.93636C21.2135 7.33638 21.1595 6.7364 20.9975 6.15459L21.0065 6.10914ZM16.6434 22.1814C15.168 23.5632 13.3058 24.3177 11.5425 24.3177C10.9038 24.3177 10.2741 24.2177 9.67131 24.0086C9.51838 23.9541 9.36544 23.8905 9.2125 23.8268C9.05957 23.7632 8.91563 23.6723 8.78069 23.5905C8.25891 23.2814 7.8001 22.8814 7.39527 22.4087C7.23334 22.2269 7.0894 22.036 6.95445 21.8269C6.99044 21.8269 7.02642 21.8269 7.05341 21.8269C7.63817 21.8269 8.23192 21.7633 8.80767 21.6451C9.40143 21.5269 9.97718 21.3451 10.5439 21.1087C11.9563 20.4906 13.2248 19.5724 14.2594 18.4179C15.2939 17.2816 16.0766 15.9271 16.5444 14.4544V14.4453L17.1472 12.3726L17.1832 12.2817C17.3361 11.8908 17.507 11.5181 17.7049 11.1454C17.8939 10.809 18.1008 10.4908 18.3167 10.1454L18.5056 9.8454C18.8025 9.39087 19.0724 8.91815 19.2973 8.42726C19.5582 7.89091 19.7111 7.30002 19.7651 6.70003V6.66367C19.7651 6.64549 19.7651 6.61822 19.7651 6.59094C19.7741 6.18187 19.7201 5.78187 19.6031 5.39098C19.828 5.65461 20.008 5.96369 20.1249 6.32732C20.1339 6.35459 20.1339 6.37277 20.1429 6.40004C20.4128 7.30911 20.2239 8.34544 20.017 9.32723C19.99 9.43632 19.963 9.5545 19.945 9.66359C19.855 10.0636 19.7651 10.4636 19.7021 10.8726C19.6301 11.3726 19.5941 11.8817 19.5851 12.3908L19.7291 14.5907C19.855 17.3179 18.6495 20.2997 16.6434 22.1814ZM2.99612 19.536C2.87017 19.427 2.74423 19.3179 2.62728 19.1997C2.51032 19.0815 2.40237 18.9542 2.29442 18.827C0.81004 16.9816 0.531157 14.1362 1.59271 11.5817C2.65426 9.02724 5.01127 6.86367 7.59319 6.06369L9.6893 5.43643C10.1571 5.25462 10.6249 5.04553 11.0657 4.80917C11.5155 4.54555 11.9474 4.25465 12.3882 3.97284C13.2248 3.43649 14.1244 2.90923 15.06 2.84559C15.078 2.84559 15.105 2.84559 15.123 2.84559H15.222V2.8365C15.9057 2.8365 16.5084 3.10013 17.0212 3.48194C17.0032 3.53648 16.9942 3.59103 16.9942 3.66375C16.9942 3.84556 17.0662 4.08192 17.3181 4.33646C17.588 4.60918 17.9208 4.62736 18.1367 4.60009C18.5596 5.15462 18.8295 5.80915 18.8025 6.56367C18.8025 6.59095 18.8025 6.60913 18.8025 6.6364C18.7395 7.58183 18.2177 8.49089 17.6869 9.33633C17.4081 9.78177 17.1202 10.2181 16.8593 10.6727C16.6164 11.1181 16.4095 11.5817 16.2296 12.0544L15.6178 14.1726C14.8351 16.7725 12.685 19.1633 10.1571 20.236C9.18552 20.6542 8.14195 20.8724 7.0804 20.8815C7.06241 20.8815 7.04442 20.8815 7.02642 20.8815C5.52406 20.8906 4.08466 20.436 2.99612 19.536ZM17.9298 2.95468C17.8939 2.97286 17.8669 2.99104 17.8399 3.01832C17.8669 2.99104 17.8939 2.97286 17.9298 2.95468Z" fill="white"/>
<path d="M7.04455 20.8907C7.06254 20.8907 7.08054 20.8907 7.09853 20.8907C6.81065 20.827 6.52277 20.7543 6.25288 20.6543V20.6634C5.65913 20.4543 5.11037 20.1452 4.61557 19.7452C4.49862 19.6543 4.38167 19.5452 4.25572 19.418L4.24673 19.4089L4.23773 19.3998C4.11179 19.2634 4.00383 19.1453 3.91387 19.0362C2.44749 17.2362 2.15061 14.4454 3.16718 11.9364C4.16576 9.45461 6.41482 7.34558 8.87978 6.5456L10.769 5.95471L10.8769 5.90926C11.2458 5.76381 11.6056 5.59108 11.9475 5.39109C12.2534 5.20928 12.5502 5.00928 12.8651 4.8002L13.135 4.61838C13.5308 4.34566 13.9356 4.10931 14.3675 3.89113C14.8083 3.66386 15.2851 3.5275 15.7709 3.48205H15.7889C15.8069 3.48205 15.8249 3.48205 15.8518 3.48205C16.2297 3.46387 16.6075 3.51841 16.9674 3.65477C16.9854 3.66386 16.9944 3.66386 17.0124 3.67295C17.0124 3.60932 17.0214 3.54568 17.0393 3.49114C16.5266 3.10024 15.9238 2.8457 15.2401 2.8457V2.85479H15.1411C15.1232 2.85479 15.0962 2.85479 15.0782 2.85479C14.1426 2.91843 13.2429 3.44569 12.4063 3.98204C11.9655 4.26385 11.5337 4.55475 11.0839 4.81838C10.643 5.05473 10.1752 5.27291 9.70743 5.44563L7.61131 6.07289C5.0294 6.86378 2.67239 9.03644 1.61084 11.5909C0.549285 14.1454 0.828168 16.9999 2.31254 18.8362C2.4205 18.9634 2.51946 19.0907 2.6454 19.2089C2.76235 19.3271 2.8883 19.4362 3.01425 19.5452C4.0848 20.4361 5.52419 20.8907 7.04455 20.8907Z" fill="#FF9D8D"/>
<path d="M15.8517 3.4907C15.8248 3.4907 15.8068 3.4907 15.7888 3.4907H15.7708C15.285 3.53615 14.8082 3.6816 14.3674 3.89978C13.9445 4.11795 13.5307 4.35431 13.1349 4.62703L12.865 4.80884C12.5501 5.01793 12.2533 5.21792 11.9474 5.39974C11.6055 5.59973 11.2457 5.77245 10.8768 5.9179L10.7689 5.96336L8.87967 6.55425C6.41471 7.35423 4.16566 9.46326 3.16708 11.945C2.15051 14.454 2.44738 17.2449 3.91376 19.0448C4.00373 19.1539 4.11168 19.2721 4.23763 19.4084L4.24662 19.4175L4.25562 19.4266C4.38157 19.5539 4.50751 19.663 4.61547 19.7539C5.10126 20.1539 5.65903 20.463 6.25278 20.672V20.663C6.53166 20.763 6.81054 20.8357 7.09842 20.8993C8.15098 20.8902 9.20354 20.672 10.1751 20.2539C12.7031 19.1812 14.8532 16.7994 15.6358 14.1904L16.2476 12.0723C16.4275 11.5996 16.6344 11.1359 16.8773 10.6905C17.1382 10.236 17.4171 9.79962 17.705 9.35417C18.2357 8.50874 18.7575 7.59968 18.8205 6.65425C18.8205 6.62698 18.8205 6.60879 18.8205 6.58152C18.8475 5.827 18.5686 5.17247 18.1548 4.61794C17.9389 4.64521 17.606 4.62703 17.3361 4.35431C17.0842 4.09977 17.0123 3.86341 17.0123 3.6816C16.9943 3.67251 16.9853 3.67251 16.9673 3.66342C16.6074 3.52706 16.2296 3.47251 15.8517 3.4907ZM7.33233 19.2539C7.1614 19.4266 6.87352 19.4266 6.70259 19.2539C6.53166 19.0812 6.53166 18.7903 6.70259 18.6176C6.87352 18.4448 7.1524 18.4448 7.33233 18.6176C7.50325 18.7903 7.50325 19.0721 7.33233 19.2539ZM9.32049 19.3539C9.08659 19.5903 8.71774 19.5903 8.48384 19.3539C8.24994 19.1175 8.24994 18.7448 8.48384 18.5085C8.71774 18.2721 9.08659 18.2721 9.32049 18.5085C9.55439 18.7448 9.55439 19.1266 9.32049 19.3539Z" fill="white"/>
<path d="M9.32067 18.5083C9.08676 18.272 8.70892 18.272 8.48402 18.5083C8.25012 18.7447 8.25012 19.1174 8.48402 19.3538C8.71792 19.5901 9.08676 19.5901 9.32067 19.3538C9.55457 19.1265 9.55457 18.7447 9.32067 18.5083Z" fill="#FF9D8D"/>
<path d="M6.70241 18.6178C6.53149 18.7905 6.53149 19.0814 6.70241 19.2542C6.87334 19.4269 7.16122 19.4269 7.33215 19.2542C7.50308 19.0814 7.50308 18.7905 7.33215 18.6178C7.16122 18.4451 6.88234 18.4451 6.70241 18.6178Z" fill="#FF9D8D"/>
</svg>
