<svg width="15" height="18" viewBox="0 0 15 18" fill="none" xmlns="http://www.w3.org/2000/svg">
<path d="M14.0718 4.63838C14.0681 4.62551 14.0633 4.60919 14.0568 4.59076C13.9211 4.18476 13.6835 3.8204 13.3667 3.53254C13.203 3.38301 13.0239 3.25137 12.8323 3.13987C13.0493 3.0043 13.2972 2.83705 13.5355 2.65867C13.7298 2.5135 15 1.53747 15 1.53747L13.3511 0.64209L12.9617 1.19894C12.6476 1.66305 12.3248 2.12659 11.8826 2.47952C11.8807 2.48124 11.8793 2.48297 11.8774 2.4847C11.7235 2.35909 11.558 2.24837 11.3831 2.15404C11.0182 1.9567 10.6102 1.85273 10.1953 1.85142C10.1694 1.85142 10.1429 1.85142 10.1166 1.85257C10.0974 1.85257 10.0797 1.85392 10.0665 1.85488L10.0407 1.85661C9.67744 1.88003 9.30339 1.98219 8.89746 2.16883C8.56047 2.3236 8.2446 2.51638 7.95292 2.70168C7.88648 2.74412 7.81966 2.78713 7.75514 2.8288C7.52798 2.97512 7.3135 3.11318 7.09268 3.23952C6.85726 3.37394 6.60572 3.47686 6.33958 3.58631L6.27756 3.61185L4.90174 4.01509H4.89848L4.89522 4.01624C3.95874 4.30196 3.04857 4.83078 2.26322 5.54548C1.47786 6.26017 0.861482 7.12003 0.477445 8.03404C0.0882236 8.96187 -0.0675034 9.95998 0.0267777 10.9205C0.0711005 11.3879 0.179386 11.8471 0.348601 12.2851C0.515541 12.7178 0.749175 13.1216 1.04102 13.482V13.482C1.11322 13.5703 1.19559 13.6629 1.29256 13.7648L1.30351 13.7764L1.31484 13.7871C1.4168 13.8841 1.50935 13.9664 1.59787 14.0386C1.9472 14.3227 2.33785 14.5517 2.75632 14.7178C2.85099 14.7562 2.947 14.7917 3.0455 14.824C3.31232 14.9112 3.58584 14.9763 3.86331 15.0187C3.91592 15.1128 3.97109 15.2047 4.02883 15.2944C4.16584 15.5089 4.31907 15.7126 4.48718 15.9037C4.79298 16.2523 5.15147 16.5508 5.54961 16.7885V16.7885C5.64793 16.8462 5.75719 16.9051 5.88334 16.9673L5.89755 16.9744L5.91195 16.9806C6.04118 17.0364 6.15639 17.0818 6.26431 17.1192C6.73376 17.2791 7.22657 17.3596 7.7225 17.3575C8.06674 17.3573 8.41009 17.3223 8.7473 17.253C9.09023 17.1822 9.42575 17.0794 9.74944 16.9458C10.0814 16.8091 10.4003 16.6428 10.7024 16.4489C11.0131 16.2494 11.3054 16.0226 11.5757 15.7712V15.7712C12.3018 15.0955 12.8966 14.2193 13.2962 13.2366C13.6958 12.2538 13.8792 11.2162 13.8247 10.2386V10.2319L13.7286 8.80134C13.7296 8.77888 13.7304 8.7566 13.7313 8.73433C13.7425 8.4463 13.7528 8.1744 13.7976 7.90673C13.84 7.6571 13.8957 7.40748 13.9547 7.14441C13.9715 7.06953 13.9888 6.99195 14.0057 6.91495V6.91399C14.0793 6.57661 14.1513 6.21332 14.1805 5.84368C14.2158 5.3982 14.1828 5.01186 14.0797 4.66277L14.0718 4.63838ZM1.74592 13.3353C1.67026 13.2558 1.59519 13.1728 1.52529 13.0876C0.528906 11.8652 0.342264 9.97477 1.05388 8.27809C1.76435 6.58487 3.34774 5.14435 5.07687 4.61687L6.48455 4.20384C6.7985 4.07423 7.10247 3.95422 7.40259 3.78332C7.70272 3.61242 7.9942 3.41849 8.28857 3.22992C8.84753 2.8745 9.45201 2.52195 10.0805 2.48105H10.0826C10.0972 2.48105 10.112 2.47817 10.1264 2.47817H10.1285C10.151 2.47817 10.173 2.47702 10.1951 2.47702C10.6118 2.47702 10.9824 2.61854 11.3046 2.83686C11.288 2.88587 11.278 2.93689 11.2748 2.98856C11.0609 2.92244 10.8372 2.89379 10.6135 2.90388C10.5957 2.90388 10.5809 2.9058 10.5713 2.90676H10.568L10.5561 2.90772C10.2602 2.93057 9.95241 3.01966 9.61522 3.18038C9.32393 3.31921 9.04646 3.49376 8.78954 3.66216C8.72944 3.70152 8.66915 3.74165 8.61058 3.78044C8.40071 3.91965 8.20254 4.05099 7.99612 4.17331C7.7657 4.30868 7.52856 4.41007 7.27721 4.5176L7.20693 4.54755L5.93864 4.93831L5.93557 4.93927C4.27999 5.46905 2.77552 6.87328 2.10288 8.51696C1.42218 10.1833 1.61804 12.0328 2.60213 13.2289C2.66396 13.3038 2.73501 13.3825 2.81911 13.4703L2.8241 13.4755L2.82929 13.4805C2.91762 13.5636 2.9973 13.6341 3.07315 13.6949C3.40179 13.9575 3.77224 14.1629 4.169 14.3027V14.3027C4.34552 14.3658 4.52603 14.4171 4.70934 14.4563V14.4563C3.68895 14.4563 2.72349 14.1491 1.99516 13.5563C1.90837 13.4862 1.82542 13.4109 1.74592 13.3353ZM4.90117 13.3647C4.85951 13.4063 4.80644 13.4346 4.74868 13.4461C4.69091 13.4576 4.63104 13.4517 4.57662 13.4292C4.52221 13.4066 4.47571 13.3684 4.44299 13.3195C4.41027 13.2705 4.39281 13.2129 4.39281 13.154C4.39281 13.0951 4.41027 13.0375 4.44299 12.9886C4.47571 12.9396 4.52221 12.9014 4.57662 12.8789C4.63104 12.8563 4.69091 12.8504 4.74868 12.8619C4.80644 12.8734 4.85951 12.9017 4.90117 12.9434C4.92884 12.971 4.95079 13.0039 4.96577 13.04C4.98074 13.0762 4.98845 13.1149 4.98845 13.154C4.98845 13.1931 4.98074 13.2319 4.96577 13.268C4.95079 13.3042 4.92884 13.337 4.90117 13.3647V13.3647ZM5.67347 13.4357C5.61794 13.3802 5.58013 13.3094 5.56482 13.2324C5.54951 13.1554 5.55738 13.0755 5.58744 13.003C5.6175 12.9304 5.66839 12.8684 5.73369 12.8248C5.79899 12.7812 5.87576 12.7579 5.95429 12.7579C6.03283 12.7579 6.1096 12.7812 6.1749 12.8248C6.2402 12.8684 6.29109 12.9304 6.32115 13.003C6.35121 13.0755 6.35908 13.1554 6.34377 13.2324C6.32845 13.3094 6.29064 13.3802 6.23512 13.4357C6.1606 13.5101 6.0596 13.5519 5.95429 13.5519C5.84899 13.5519 5.74799 13.5101 5.67347 13.4357ZM4.70781 15.0832C5.10225 15.0828 5.49566 15.043 5.88219 14.9644C6.28084 14.8835 6.67054 14.7634 7.04563 14.6061V14.6061C7.95983 14.222 8.82027 13.6045 9.534 12.8203C10.2477 12.0361 10.7777 11.1248 11.0634 10.1883L11.0644 10.185V10.1818L11.4676 8.80595C11.4761 8.78521 11.4847 8.76447 11.4932 8.74393C11.6026 8.47779 11.7061 8.22644 11.8401 7.99083C11.9663 7.7702 12.1046 7.55572 12.2509 7.32856C12.2923 7.26385 12.3354 7.19722 12.3778 7.13059C12.5631 6.8391 12.7559 6.52304 12.9106 6.18624C13.0973 5.78012 13.1987 5.40607 13.2229 5.04296L13.2246 5.01685C13.2257 5.00341 13.2267 4.98651 13.2269 4.96692C13.234 4.74448 13.2107 4.52212 13.1576 4.306C13.2021 4.37448 13.2427 4.44374 13.2793 4.51376C13.4565 4.84543 13.5452 5.21716 13.537 5.5931C13.537 5.6123 13.5357 5.62881 13.5347 5.63956V5.64302V5.65608C13.5165 5.98059 13.4262 6.31912 13.2592 6.69106C13.1148 7.0123 12.931 7.31896 12.754 7.60257C12.7123 7.6692 12.67 7.73602 12.6291 7.80073C12.4824 8.0325 12.344 8.2514 12.2157 8.48009C12.0738 8.73452 11.9686 8.99605 11.8574 9.27294L11.8263 9.34975L11.429 10.7465V10.748C10.8898 12.5695 9.39671 14.2385 7.62495 15.0003C6.75376 15.3736 5.81575 15.526 4.92613 15.4519C4.82411 15.3337 4.7286 15.2099 4.64002 15.0813C4.66268 15.0815 4.68515 15.0825 4.70781 15.0825V15.0832Z" fill="#FF9D8D"/>
</svg>
