<svg width="46" height="44" viewBox="0 0 46 44" fill="none" xmlns="http://www.w3.org/2000/svg">
<path d="M24.1773 21.1814C33.0571 14.7417 39.842 8.29194 27.106 19.4821C49.6207 8.29313 54.2104 11.7179 28.7887 21.0348C54.2102 27.8413 37.8434 25.6223 24.5437 22.8468C31.0615 26.631 30.264 27.8406 24.3959 23.0664C30.264 27.8405 45.0287 36.7051 27.106 25.765C45.0291 47.1847 41.2385 51.2145 25.5683 27.3543C27.8681 51.2138 25.0753 39.1244 23.2259 23.8791C23.8756 32.2726 22.2829 32.2726 22.933 23.8791C22.2825 32.2726 18.0903 43.1546 22.1644 25.8765C16.2952 47.7898 13.5008 51.6186 20.2969 27.4293C3.12361 51.6201 -0.0698372 47.1853 18.8339 25.803C-0.0696402 39.1253 2.72672 36.5054 19.8219 24.2864C5.31882 34.4903 14.6989 27.6372 21.5435 23.0314C14.6989 27.6372 14.2987 25.8244 21.47 22.6983C12.7022 25.824 10.1092 25.6223 20.1887 22.5887C2.12665 24.6164 -8.0508 24.6164 17.3702 20.7771C-8.0513 11.1146 -3.86168 7.48664 18.8708 19.3347C6.31478 7.48704 11.7056 13.1279 21.8718 21.109C16.4945 17.1597 18.2885 15.9496 22.2017 20.8874C17.292 11.9219 14.6993 5.47267 21.5439 18.1889C14.6993 -3.79699 18.6887 -7.6268 23.1905 16.5638C28.8654 -7.627 31.8583 -3.3952 24.6908 18.2262C31.8583 5.87605 29.0659 12.1228 23.9222 20.9236C27.6684 16.1522 29.0651 17.5627 24.1774 21.1813L24.1773 21.1814Z" fill="#23262E"/>
</svg>
