<svg width="17" height="38" viewBox="0 0 17 38" fill="none" xmlns="http://www.w3.org/2000/svg">
<path d="M0.670491 38C0.300006 38 0 37.7057 0 37.3431C0 36.0365 0.742222 35.3628 1.33852 34.8214C1.86556 34.3426 2.24697 33.997 2.24697 33.2643C2.24697 32.5316 1.86557 32.1857 1.33852 31.7072C0.742565 31.1664 0.000319166 30.4927 0.000319166 29.1858C0.000319166 27.8799 0.742541 27.2065 1.33884 26.6656C1.8665 26.1874 2.24729 25.8416 2.24729 25.1097C2.24729 24.3776 1.86651 24.0321 1.33884 23.5533C0.742884 23.0125 0.000319166 22.3391 0.000319166 21.0325C0.000319166 19.7266 0.742541 19.0531 1.33884 18.5122C1.8665 18.0341 2.24729 17.6882 2.24729 16.9567C2.24729 16.2252 1.86651 15.8799 1.33916 15.4017C0.742884 14.8609 0.000638333 14.1877 0.000638333 12.8821C0.000638333 11.5762 0.74286 10.9034 1.33916 10.3625C1.86682 9.88465 2.24761 9.5391 2.24761 8.80758C2.24761 8.07548 1.86683 7.73048 1.33916 7.25168C0.742884 6.71116 0.000638333 6.03769 0.000638333 4.7321C0.000638333 3.4262 0.74286 2.75303 1.33916 2.21189C1.86682 1.73401 2.24761 1.38846 2.24761 0.656933C2.24761 0.29394 2.54761 0 2.9181 0C3.28858 0 3.58859 0.29394 3.58859 0.656933C3.58859 1.96284 2.84637 2.63601 2.25007 3.17652C1.7224 3.6547 1.34162 4.00058 1.34162 4.7321C1.34162 5.46359 1.72239 5.80921 2.25007 6.28768C2.84602 6.82821 3.58859 7.50168 3.58859 8.80789C3.58859 10.1138 2.84637 10.787 2.25007 11.3275C1.7224 11.8054 1.34162 12.1509 1.34162 12.8824C1.34162 13.6139 1.72239 13.9595 2.25007 14.4374C2.84602 14.9782 3.58859 15.6514 3.58859 16.957C3.58859 18.2629 2.84637 18.9361 2.25007 19.4766C1.7224 19.9547 1.34162 20.3006 1.34162 21.0325C1.34162 21.7649 1.72302 22.1104 2.25007 22.5892C2.84602 23.13 3.58827 23.8034 3.58827 25.1097C3.58827 26.416 2.84605 27.0891 2.24975 27.6299C1.72208 28.1081 1.3413 28.454 1.3413 29.1858C1.3413 29.9186 1.7227 30.2644 2.24975 30.7429C2.8457 31.2837 3.58795 31.9575 3.58795 33.2643C3.58795 34.5708 2.84573 35.2445 2.24975 35.7857C1.72208 36.2645 1.3413 36.6104 1.3413 37.3434C1.3413 37.7058 1.04129 38 0.670498 38L0.670491 38Z" fill="#23262E"/>
<path d="M5.14119 38C4.77071 38 4.4707 37.7057 4.4707 37.3431C4.4707 36.0365 5.21293 35.3628 5.80922 34.8214C6.33627 34.3426 6.71767 33.997 6.71767 33.2643C6.71767 32.5316 6.33627 32.1857 5.80922 31.7072C5.21327 31.1664 4.47102 30.4927 4.47102 29.1858C4.47102 27.8799 5.21324 27.2065 5.80954 26.6656C6.33721 26.1874 6.71799 25.8416 6.71799 25.1097C6.71799 24.3776 6.33722 24.0321 5.80954 23.5533C5.21359 23.0125 4.47102 22.3391 4.47102 21.0325C4.47102 19.7266 5.21324 19.0531 5.80954 18.5122C6.33721 18.0341 6.71799 17.6882 6.71799 16.9567C6.71799 16.2252 6.33722 15.8799 5.80986 15.4017C5.21359 14.8609 4.47134 14.1877 4.47134 12.8821C4.47134 11.5762 5.21356 10.9034 5.80986 10.3625C6.33753 9.88465 6.71831 9.5391 6.71831 8.80758C6.71831 8.07548 6.33754 7.73048 5.80986 7.25168C5.21359 6.71116 4.47134 6.03769 4.47134 4.7321C4.47134 3.4262 5.21356 2.75303 5.80986 2.21189C6.33753 1.73401 6.71831 1.38846 6.71831 0.656933C6.71831 0.29394 7.01832 0 7.3888 0C7.75929 0 8.05929 0.29394 8.05929 0.656933C8.05929 1.96284 7.31707 2.63601 6.72077 3.17652C6.19311 3.6547 5.81232 4.00058 5.81232 4.7321C5.81232 5.46359 6.1931 5.80921 6.72077 6.28768C7.31673 6.82821 8.05929 7.50168 8.05929 8.80789C8.05929 10.1138 7.31707 10.787 6.72077 11.3275C6.19311 11.8054 5.81232 12.1509 5.81232 12.8824C5.81232 13.6139 6.1931 13.9595 6.72077 14.4374C7.31673 14.9782 8.05929 15.6514 8.05929 16.957C8.05929 18.2629 7.31707 18.9361 6.72077 19.4766C6.19311 19.9547 5.81232 20.3006 5.81232 21.0325C5.81232 21.7649 6.19372 22.1104 6.72077 22.5892C7.31673 23.13 8.05897 23.8034 8.05897 25.1097C8.05897 26.416 7.31675 27.0891 6.72045 27.6299C6.19279 28.1081 5.812 28.454 5.812 29.1858C5.812 29.9186 6.1934 30.2644 6.72045 30.7429C7.31641 31.2837 8.05865 31.9575 8.05865 33.2643C8.05865 34.5708 7.31643 35.2445 6.72045 35.7857C6.19279 36.2645 5.812 36.6104 5.812 37.3434C5.812 37.7058 5.512 38 5.1412 38L5.14119 38Z" fill="#23262E"/>
<path d="M9.6119 38C9.24172 38 8.94141 37.7057 8.94141 37.3431C8.94141 36.0365 9.68363 35.3628 10.2796 34.8214C10.8073 34.3426 11.1881 33.997 11.1881 33.2643C11.1881 32.5316 10.8067 32.1857 10.2796 31.7072C9.68365 31.1664 8.94141 30.4927 8.94141 29.1858C8.94141 27.8799 9.68363 27.2065 10.2799 26.6656C10.807 26.1874 11.1881 25.8416 11.1881 25.1097C11.1881 24.3776 10.8067 24.0321 10.2799 23.5533C9.68365 23.0125 8.94141 22.3391 8.94141 21.0325C8.94141 19.7266 9.68363 19.0531 10.2799 18.5122C10.807 18.0341 11.1881 17.6882 11.1881 16.9567C11.1881 16.2252 10.8067 15.8799 10.2799 15.4017C9.68365 14.8609 8.94141 14.1877 8.94141 12.8821C8.94141 11.5762 9.68363 10.9034 10.2799 10.3625C10.807 9.88465 11.1881 9.5391 11.1881 8.80758C11.1881 8.07548 10.8067 7.73048 10.2796 7.25168C9.68365 6.71116 8.94141 6.03769 8.94141 4.7321C8.94141 3.4262 9.68363 2.75303 10.2799 2.21189C10.807 1.73401 11.1881 1.38846 11.1881 0.656933C11.1881 0.29394 11.4884 0 11.8585 0C12.2287 0 12.529 0.29394 12.529 0.656933C12.529 1.96284 11.7868 2.63601 11.1905 3.17652C10.6635 3.6547 10.2824 4.00058 10.2824 4.7321C10.2824 5.46359 10.6638 5.80921 11.1905 6.28768C11.7868 6.82821 12.529 7.50168 12.529 8.80789C12.529 10.1138 11.7868 10.787 11.1905 11.3275C10.6635 11.8054 10.2824 12.1509 10.2824 12.8824C10.2824 13.6139 10.6638 13.9595 11.1905 14.4374C11.7868 14.9782 12.529 15.6514 12.529 16.957C12.529 18.2629 11.7868 18.9361 11.1908 19.4766C10.6632 19.9547 10.2824 20.3006 10.2824 21.0325C10.2824 21.7649 10.6638 22.1104 11.1908 22.5892C11.7868 23.13 12.529 23.8034 12.529 25.1097C12.529 26.416 11.7868 27.0891 11.1905 27.6299C10.6635 28.1081 10.2824 28.454 10.2824 29.1858C10.2824 29.9186 10.6638 30.2644 11.1908 30.7429C11.7868 31.2837 12.529 31.9575 12.529 33.2643C12.529 34.5708 11.7874 35.2445 11.1908 35.7857C10.6632 36.2645 10.2824 36.6104 10.2824 37.3434C10.2827 37.7058 9.98207 38 9.6119 38V38Z" fill="#23262E"/>
<path d="M14.0826 38C13.7124 38 13.4121 37.7057 13.4121 37.3431C13.4121 36.0365 14.1543 35.3628 14.7503 34.8214C15.278 34.3426 15.6588 33.997 15.6588 33.2643C15.6588 32.5316 15.2774 32.1857 14.7503 31.7072C14.1544 31.1664 13.4121 30.4927 13.4121 29.1858C13.4121 27.8799 14.1543 27.2065 14.7506 26.6656C15.2777 26.1874 15.6588 25.8416 15.6588 25.1097C15.6588 24.3776 15.2774 24.0321 14.7506 23.5533C14.1544 23.0125 13.4121 22.3391 13.4121 21.0325C13.4121 19.7266 14.1543 19.0531 14.7506 18.5122C15.2777 18.0341 15.6588 17.6882 15.6588 16.9567C15.6588 16.2252 15.2774 15.8799 14.7506 15.4017C14.1544 14.8609 13.4121 14.1877 13.4121 12.8821C13.4121 11.5762 14.1543 10.9034 14.7506 10.3625C15.2777 9.88465 15.6588 9.5391 15.6588 8.80758C15.6588 8.07548 15.2774 7.73048 14.7503 7.25168C14.1544 6.71116 13.4121 6.03769 13.4121 4.7321C13.4121 3.4262 14.1543 2.75303 14.7506 2.21189C15.2777 1.73401 15.6588 1.38846 15.6588 0.656933C15.6588 0.29394 15.9591 0 16.3293 0C16.6994 0 16.9997 0.29394 16.9997 0.656933C16.9997 1.96284 16.2575 2.63601 15.6612 3.17652C15.1342 3.6547 14.7531 4.00058 14.7531 4.7321C14.7531 5.46359 15.1345 5.80921 15.6612 6.28768C16.2575 6.82821 16.9997 7.50168 16.9997 8.80789C16.9997 10.1138 16.2575 10.787 15.6612 11.3275C15.1342 11.8054 14.7531 12.1509 14.7531 12.8824C14.7531 13.6139 15.1345 13.9595 15.6612 14.4374C16.2575 14.9782 16.9997 15.6514 16.9997 16.957C16.9997 18.2629 16.2575 18.9361 15.6615 19.4766C15.1339 19.9547 14.7531 20.3006 14.7531 21.0325C14.7531 21.7649 15.1345 22.1104 15.6615 22.5892C16.2575 23.13 16.9997 23.8034 16.9997 25.1097C16.9997 26.416 16.2575 27.0891 15.6612 27.6299C15.1342 28.1081 14.7531 28.454 14.7531 29.1858C14.7531 29.9186 15.1345 30.2644 15.6615 30.7429C16.2575 31.2837 16.9997 31.9575 16.9997 33.2643C16.9997 34.5708 16.2581 35.2445 15.6615 35.7857C15.1339 36.2645 14.7531 36.6104 14.7531 37.3434C14.7534 37.7058 14.4528 38 14.0826 38V38Z" fill="#23262E"/>
</svg>
